<svg width="38" height="45" viewBox="0 0 38 45" fill="none" xmlns="http://www.w3.org/2000/svg">
<path fill-rule="evenodd" clip-rule="evenodd" d="M0 18.4031C0 8.24062 8.5082 0 19 0C29.4918 0 38 8.24062 38 18.4031C38 28.6122 29.8682 35.6261 19.3495 44.6986C19.2333 44.7988 19.1168 44.8993 19 45C18.8832 44.8993 18.7667 44.7988 18.6506 44.6986C8.13185 35.6261 0 28.6122 0 18.4031Z" fill="#0265B5"/>
<path d="M29.3971 18.6107C28.784 18.1514 27.9076 18.2658 27.4385 18.8739C27.3941 18.9357 27.3577 19.0002 27.3214 19.0634L23.892 18.4898C23.9243 18.2551 23.9458 18.0185 23.9458 17.7753C23.9458 16.7909 23.6685 15.8723 23.1933 15.0814L25.3795 13.685C25.5188 13.778 25.6891 13.8285 25.8695 13.8119C26.2855 13.774 26.5911 13.4138 26.5547 13.0004C26.517 12.5896 26.1488 12.2885 25.7329 12.3251C25.3169 12.3616 25.012 12.7259 25.0484 13.1366C25.0517 13.1778 25.0625 13.2144 25.0706 13.2549L22.8985 14.6394C22.4651 14.0612 21.9199 13.5733 21.2878 13.2097L22.8481 10.7758C23.0143 10.8023 23.1907 10.7777 23.3475 10.688C23.7083 10.4806 23.8334 10.026 23.6228 9.66976C23.4134 9.31151 22.9517 9.18789 22.5903 9.39526C22.2295 9.60197 22.105 10.0579 22.3143 10.4162C22.3345 10.4514 22.3574 10.482 22.3843 10.5132L20.8126 12.9638C20.2809 12.7239 19.7054 12.5624 19.0983 12.5059L19.4173 10.6448C19.5398 10.6156 19.6529 10.5551 19.7337 10.4514C19.9181 10.2095 19.873 9.86584 19.6287 9.68372C19.3844 9.49895 19.0357 9.54614 18.8499 9.78674C18.6655 10.0273 18.712 10.3723 18.9549 10.5551C18.9785 10.5704 19.0061 10.5764 19.0303 10.5916L18.7046 12.4879C18.6635 12.4866 18.6245 12.4819 18.5841 12.4819C17.8881 12.4819 17.2251 12.6162 16.6173 12.8555L15.113 10.1264C15.259 9.9436 15.3486 9.71496 15.3445 9.46372C15.3351 8.88347 14.8538 8.42021 14.2662 8.43217C13.6807 8.44148 13.2135 8.91671 13.2223 9.49629C13.231 10.0745 13.713 10.5345 14.2999 10.5265C14.3585 10.5252 14.4143 10.5152 14.4702 10.5066L15.9402 13.1732C15.2052 13.5833 14.5779 14.1622 14.1128 14.8548L11.9165 13.1532C11.9603 12.9944 11.9522 12.8189 11.8795 12.6554C11.7079 12.2799 11.2616 12.1117 10.8806 12.2812C10.4983 12.45 10.3287 12.892 10.4997 13.2689C10.6727 13.6437 11.1196 13.8112 11.5005 13.6424C11.5376 13.6251 11.5712 13.6025 11.6049 13.5813L13.8368 15.314C13.507 15.9368 13.2984 16.6314 13.2418 17.3718L9.94707 17.3658C9.85486 17.1518 9.69399 16.9637 9.46986 16.8481C8.95091 16.5775 8.30744 16.773 8.03619 17.2861C7.76359 17.7985 7.96282 18.4326 8.47975 18.7011C8.9987 18.9723 9.64149 18.7742 9.91476 18.2618C9.94236 18.2119 9.95986 18.1601 9.97871 18.1063L13.2398 18.1142C13.2667 18.5336 13.3381 18.9431 13.4585 19.3325L11.3511 20.1341C11.2347 20.0151 11.0772 19.9327 10.8968 19.9115C10.4822 19.8649 10.1086 20.1587 10.0608 20.5668C10.013 20.9762 10.3099 21.3498 10.7258 21.395C11.1398 21.4408 11.514 21.1464 11.5611 20.7376C11.5652 20.6971 11.5645 20.6599 11.5638 20.6167L13.6396 19.827C14.0509 20.7901 14.7441 21.6103 15.6164 22.1813L14.5987 23.2188C14.4419 23.1596 14.2642 23.1483 14.0926 23.2042C13.6941 23.3351 13.4808 23.7565 13.6107 24.146C13.7406 24.5381 14.1693 24.7528 14.5651 24.6259C14.9622 24.4943 15.1763 24.0722 15.0477 23.6794C15.0336 23.6409 15.0174 23.6063 14.9992 23.5684L16.089 22.4584C16.6079 22.7289 17.1773 22.915 17.7797 23.0028L17.4896 25.6887C17.3254 25.7259 17.1713 25.8163 17.0595 25.9552C16.8038 26.2815 16.863 26.7481 17.1942 27.0034C17.5253 27.2566 17.9998 27.1954 18.2563 26.8698C18.5114 26.5427 18.4501 26.0755 18.1196 25.8209C18.0873 25.799 18.053 25.7797 18.0194 25.7591L18.3108 23.0553C18.4023 23.0613 18.4925 23.0692 18.5854 23.0692C19.2821 23.0692 19.9457 22.9343 20.5575 22.6957L21.0987 25.0752C20.9634 25.1722 20.8564 25.3105 20.8086 25.4839C20.7009 25.8827 20.9385 26.2915 21.343 26.3985C21.7462 26.5029 22.1615 26.2702 22.2692 25.8701C22.3769 25.4707 22.1373 25.0626 21.7334 24.9555C21.6937 24.9449 21.6547 24.9409 21.6136 24.9363L21.0536 22.473C21.4433 22.273 21.8014 22.0271 22.1285 21.7399L22.8703 22.7715C22.8036 22.8752 22.7693 22.9961 22.7861 23.1284C22.8272 23.4262 23.1072 23.6375 23.4114 23.599C23.7163 23.5571 23.9283 23.2806 23.888 22.9808C23.8462 22.6798 23.5656 22.4704 23.2613 22.5109C23.2331 22.5149 23.2108 22.5295 23.1839 22.5375L22.4186 21.4727C22.9827 20.9051 23.4141 20.2126 23.6733 19.4376L27.2009 20.0298C27.2736 20.3295 27.4405 20.6074 27.7064 20.8061C28.3209 21.2667 29.1979 21.1517 29.6657 20.5436C30.1315 19.938 30.0117 19.0727 29.3971 18.6107ZM16.9182 17.53C16.4773 17.53 16.1172 17.1751 16.1172 16.7364C16.1172 16.2997 16.4773 15.9468 16.9182 15.9468C17.3611 15.9468 17.7205 16.2991 17.7205 16.7364C17.7205 17.1744 17.3618 17.53 16.9182 17.53ZM18.9852 19.2501C18.6608 19.2501 18.397 18.9896 18.397 18.6699C18.397 18.3469 18.6608 18.0883 18.9852 18.0883C19.3103 18.0883 19.5742 18.3462 19.5742 18.6699C19.5735 18.9916 19.3103 19.2501 18.9852 19.2501ZM21.1701 16.7889C20.6908 16.7889 20.3025 16.4054 20.3025 15.9335C20.3025 15.4583 20.6908 15.0741 21.1701 15.0741C21.6493 15.0741 22.0383 15.4583 22.0383 15.9335C22.0383 16.4054 21.65 16.7889 21.1701 16.7889Z" fill="white"/>
</svg>
